<svg id="Camada_1" data-name="Camada 1" xmlns="http://www.w3.org/2000/svg" viewBox="0 0 120 50"><defs><style>.cls-1{fill:#d35b43;}.cls-1,.cls-2{fill-rule:evenodd;}.cls-2{fill:#282955;}</style></defs><title>Logo_Deps</title><path class="cls-1" d="M28.38,27.55l.3-.92L40.07,29.5c-.06.14-.12.29-.19.43l3.24.37a.51.51,0,0,1,.44.67,19.71,19.71,0,0,1-.83,2.42h0l-3.58-2h0a.62.62,0,0,1-.75.27Zm2.21-6,9.91-4c0,.15.08.3.11.45l1.57-1a.56.56,0,0,1,.8.24h0a19.42,19.42,0,0,1,.75,2.42h0L41,19.86h0a.45.45,0,0,1-.36.56h0L30.33,23h0a.31.31,0,0,1-.3.24l-1.33.15-.3-.91,2.22-1.11Zm-6.8,9.91.91-.29,3.35,8.28-.56.1L30.24,45h0a.53.53,0,0,1-.27.79,22.66,22.66,0,0,1-2.46.77h0l-1.08-6.82a.65.65,0,0,1-.74-.52Zm-2.08.18h1l.58,8c-.2,0-.39,0-.58-.09l1,7a.49.49,0,0,1-.53.59l-1,0c-.54,0-1.07,0-1.6-.06l1.18-7.72h0c-.46-.13-.58-.29-.56-.76Zm-2.07-.49.91.3-1.69,6.72-.43-.28-1.56,8h0a.53.53,0,0,1-.69.38,19,19,0,0,1-2.44-.85l3.92-8.18h0c-.32-.28-.34-.5-.17-.93v0ZM8.77,41.26l-.94.66a23,23,0,0,0,2,1.52h0a.48.48,0,0,0,.76-.26l0-.11.13.11,4.76-8.3.24.37,2.87-4.58-.77-.56L15.1,33.35h0c-.19.23-.21.36,0,.69L8.78,40.88a.27.27,0,0,0,0,.38ZM5.18,35.92l-1.87.74h0a22.47,22.47,0,0,0,1.42,2,.55.55,0,0,0,.91,0L6.27,38h0l.15.23,7.64-6.78.09.35,2.91-2.44-.56-.78L14,30.05h0a.34.34,0,0,0-.13.39h0L5.27,35.53a.26.26,0,0,0-.1.38ZM3.33,24.13l-3.27-.7C0,24,0,24.47,0,25c0,.33,0,.66,0,1v0a.53.53,0,0,0,.62.48h0l2.51-.55c0,.14,0,.29,0,.44l12.36-.9v-1L3.92,23.7c-.34,0-.54.13-.59.43Zm1.9-5.52-3.58-2h0A23.76,23.76,0,0,0,.81,19h0a.52.52,0,0,0,.44.66l3.24.37-.18.43,11.38,2.87.31-.92L6,18.34l-.16,0a.63.63,0,0,0-.59.31Zm7.9-7.08L10.5,6.14h0A22.17,22.17,0,0,0,8.39,7.62h0a.51.51,0,0,0,0,.79h0L12.06,12h0l-.54.29,6.34,7.55.78-.56-4.75-7.69c-.15-.21-.39-.26-.74-.11ZM18,10.27,16.88,3.45h0a22.83,22.83,0,0,0-2.47.77.53.53,0,0,0-.26.79h0l2.75,5.4-.56.1,3.35,8.28.91-.29L18.7,10.8A.65.65,0,0,0,18,10.27Zm3.75.14-1-7A.47.47,0,0,1,20.81,3a.62.62,0,0,1,.39-.14l1,0q.81,0,1.59.06l-1.17,7.72h0c.46.13.58.29.56.76l-.5,7h-1l-.58-8C21.32,10.35,21.52,10.37,21.71,10.41ZM26,12.07l1.56-8h0a.52.52,0,0,1,.67-.38h0a20.24,20.24,0,0,1,2.45.85h0l-3.92,8.18h0c.32.28.34.5.17.93v0l-2.14,5.2-.91-.3,1.69-6.72Zm2.91,3,4.76-8.3.13.11h0l0-.11h0a.48.48,0,0,1,.76-.26h0a23,23,0,0,1,2,1.52l-.94.66h0a.27.27,0,0,1,0,.38L29.33,16c.15.31.17.43,0,.7l-2.76,3.24-.77-.56,2.86-4.58C28.7,14.87,28.78,15,28.86,15.12Zm1.46,3.48L38,11.82c0,.08.1.15.14.23l.64-.75h0a.55.55,0,0,1,.91,0,22.47,22.47,0,0,1,1.42,2h0l-1.87.74h0a.26.26,0,0,1-.1.38L30.5,19.55h0a.33.33,0,0,1-.15.4l-2.47,1.52-.56-.78,2.91-2.44Zm-14.63,8,.29.91-2.21,1.11,0-.22-9.91,4c0-.15-.08-.3-.11-.45L2.2,33a.57.57,0,0,1-.81-.24h0a21.22,21.22,0,0,1-.74-2.42h0l2.74-.18a.45.45,0,0,1,.36-.57L14.05,27h0a.33.33,0,0,1,.31-.24Zm-7-12.26L8,13.57l-2.73-2.9A23.59,23.59,0,0,0,3.7,12.73a.48.48,0,0,0,.18.76L7.71,15.3l-.39.42,9.19,5.73.57-.78L9.54,14.28a.67.67,0,0,0-.83.07Zm17,16.34.78-.56,6.34,7.55-.52.29L36,41.58h0a.51.51,0,0,1,0,.79h0a23.52,23.52,0,0,1-2.11,1.48h0l-2.63-5.39h0c-.35.15-.59.1-.74-.11Zm3.16-5.21v-1l12.35-.9c0,.15,0,.3,0,.44l2.51-.55h0a.53.53,0,0,1,.62.48v0c0,.33,0,.66,0,1,0,.53,0,1.05-.06,1.57l-3.27-.7h0a.49.49,0,0,1-.61.41Zm6.79,10.17.74.78,2.73,2.9a23.59,23.59,0,0,0,1.55-2.06.49.49,0,0,0-.18-.76L36.66,34.7q.21-.21.39-.42l-9.18-5.73-.57.78,7.54,6.39A.65.65,0,0,0,35.66,35.65Z"/><path class="cls-2" d="M61.17,17.08a7.92,7.92,0,1,0,5.52,13.6v2h3V11.69h-3v7.63a7.88,7.88,0,0,0-5.52-2.24M97.5,30.24A5.24,5.24,0,1,0,92.26,25,5.24,5.24,0,0,0,97.5,30.24Zm.29,2.68a7.92,7.92,0,1,0-5.51-13.6V17.37h-3V38.31h3V30.68A7.86,7.86,0,0,0,97.79,32.92Zm20.49-11.85,1.28-2.35a10.72,10.72,0,0,0-5.78-1.47c-3.11,0-6.28,1.06-6.27,4.66,0,3.11,3.12,4,5.73,4.39,1,.17,3.72.64,3.68,2,0,1.77-2.28,1.91-3.66,1.9a8.41,8.41,0,0,1-4.94-1.49c-.46.74-.93,1.48-1.4,2.22a11.22,11.22,0,0,0,6.43,1.86c3.16-.05,6.56-1.09,6.65-4.48s-2.74-4.09-5.42-4.69c-1.07-.24-4-.53-4-2.17,0-1.37,2-1.67,3.11-1.65A9,9,0,0,1,118.28,21.07ZM84.14,23.58a4.74,4.74,0,0,0-9.33,0Zm-4.54-6.5A7.65,7.65,0,0,1,87.19,25a8.14,8.14,0,0,1-.06,1H74.72a5,5,0,0,0,4.75,4.32,5.93,5.93,0,0,0,4.72-2.2l2,1.54A8,8,0,1,1,79.6,17.08ZM61.47,19.76A5.24,5.24,0,1,0,66.71,25,5.24,5.24,0,0,0,61.47,19.76Z"/></svg>