<?xml version="1.0" encoding="UTF-8" standalone="no"?>
<svg
   xmlns:dc="http://purl.org/dc/elements/1.1/"
   xmlns:cc="http://creativecommons.org/ns#"
   xmlns:rdf="http://www.w3.org/1999/02/22-rdf-syntax-ns#"
   xmlns:svg="http://www.w3.org/2000/svg"
   xmlns="http://www.w3.org/2000/svg"
   xmlns:sodipodi="http://sodipodi.sourceforge.net/DTD/sodipodi-0.dtd"
   xmlns:inkscape="http://www.inkscape.org/namespaces/inkscape"
   id="Camada_1"
   data-name="Camada 1"
   viewBox="0 0 44.380001 44.282646"
   version="1.1"
   sodipodi:docname="logo-deps-completo - Copia.svg"
   width="44.380001"
   height="44.282646"
   inkscape:version="0.92.4 (5da689c313, 2019-01-14)">
  <metadata
     id="metadata15">
    <rdf:RDF>
      <cc:Work
         rdf:about="">
        <dc:format>image/svg+xml</dc:format>
        <dc:type
           rdf:resource="http://purl.org/dc/dcmitype/StillImage" />
        <dc:title>Logo_Deps</dc:title>
      </cc:Work>
    </rdf:RDF>
  </metadata>
  <sodipodi:namedview
     pagecolor="#ffffff"
     bordercolor="#666666"
     borderopacity="1"
     objecttolerance="10"
     gridtolerance="10"
     guidetolerance="10"
     inkscape:pageopacity="0"
     inkscape:pageshadow="2"
     inkscape:window-width="1920"
     inkscape:window-height="1017"
     id="namedview13"
     showgrid="false"
     fit-margin-top="0"
     fit-margin-left="0"
     fit-margin-right="0"
     fit-margin-bottom="0"
     inkscape:zoom="3.1666667"
     inkscape:cx="60"
     inkscape:cy="22.142648"
     inkscape:window-x="-8"
     inkscape:window-y="-8"
     inkscape:window-maximized="1"
     inkscape:current-layer="Camada_1" />
  <defs
     id="defs4">
    <style
       id="style2">.cls-1{fill:#d35b43;}.cls-1,.cls-2{fill-rule:evenodd;}.cls-2{fill:#282955;}</style>
  </defs>
  <title
     id="title6">Logo_Deps</title>
  <path
     class="cls-1"
     d="m 28.38,24.69 0.3,-0.92 11.39,2.87 c -0.06,0.14 -0.12,0.29 -0.19,0.43 l 3.24,0.37 a 0.51,0.51 0 0 1 0.44,0.67 19.71,19.71 0 0 1 -0.83,2.42 v 0 l -3.58,-2 v 0 A 0.62,0.62 0 0 1 38.4,28.8 Z m 2.21,-6 9.91,-4 c 0,0.15 0.08,0.3 0.11,0.45 l 1.57,-1 a 0.56,0.56 0 0 1 0.8,0.24 v 0 a 19.42,19.42 0 0 1 0.75,2.42 v 0 L 41,17 v 0 a 0.45,0.45 0 0 1 -0.36,0.56 v 0 l -10.31,2.58 v 0 a 0.31,0.31 0 0 1 -0.3,0.24 l -1.33,0.15 -0.3,-0.91 2.22,-1.11 z m -6.8,9.91 0.91,-0.29 3.35,8.28 -0.56,0.1 2.75,5.45 v 0 a 0.53,0.53 0 0 1 -0.27,0.79 22.66,22.66 0 0 1 -2.46,0.77 v 0 l -1.08,-6.82 a 0.65,0.65 0 0 1 -0.74,-0.52 z m -2.08,0.18 h 1 l 0.58,8 c -0.2,0 -0.39,0 -0.58,-0.09 l 1,7 a 0.49,0.49 0 0 1 -0.53,0.59 h -1 c -0.54,0 -1.07,0 -1.6,-0.06 l 1.18,-7.72 v 0 C 21.3,36.37 21.18,36.21 21.2,35.74 Z m -2.07,-0.49 0.91,0.3 -1.69,6.72 -0.43,-0.28 -1.56,8 v 0 a 0.53,0.53 0 0 1 -0.69,0.38 19,19 0 0 1 -2.44,-0.85 l 3.92,-8.18 v 0 c -0.32,-0.28 -0.34,-0.5 -0.17,-0.93 v 0 z M 8.77,38.4 7.83,39.06 a 23,23 0 0 0 2,1.52 v 0 a 0.48,0.48 0 0 0 0.76,-0.26 v -0.11 l 0.13,0.11 4.76,-8.3 0.24,0.37 2.87,-4.58 -0.77,-0.56 -2.72,3.24 v 0 c -0.19,0.23 -0.21,0.36 0,0.69 l -6.32,6.84 a 0.27,0.27 0 0 0 0,0.38 z M 5.18,33.06 3.31,33.8 v 0 a 22.47,22.47 0 0 0 1.42,2 0.55,0.55 0 0 0 0.91,0 l 0.63,-0.66 v 0 l 0.15,0.23 7.64,-6.78 0.09,0.35 2.91,-2.44 -0.56,-0.78 -2.5,1.47 v 0 a 0.34,0.34 0 0 0 -0.13,0.39 v 0 l -8.6,5.09 a 0.26,0.26 0 0 0 -0.1,0.38 z M 3.33,21.27 0.06,20.57 C 0,21.14 0,21.61 0,22.14 c 0,0.33 0,0.66 0,1 v 0 a 0.53,0.53 0 0 0 0.62,0.48 v 0 l 2.51,-0.55 c 0,0.14 0,0.29 0,0.44 l 12.36,-0.9 v -1 L 3.92,20.84 c -0.34,0 -0.54,0.13 -0.59,0.43 z m 1.9,-5.52 -3.58,-2 v 0 a 23.76,23.76 0 0 0 -0.84,2.39 v 0 A 0.52,0.52 0 0 0 1.25,16.8 L 4.49,17.17 4.31,17.6 15.69,20.47 16,19.55 6,15.48 H 5.84 A 0.63,0.63 0 0 0 5.25,15.79 Z M 13.13,8.67 10.5,3.28 v 0 A 22.17,22.17 0 0 0 8.39,4.76 v 0 a 0.51,0.51 0 0 0 0,0.79 v 0 l 3.67,3.59 v 0 l -0.54,0.29 6.34,7.55 0.78,-0.56 -4.75,-7.69 C 13.74,8.52 13.5,8.47 13.15,8.62 Z M 18,7.41 16.88,0.59 v 0 a 22.83,22.83 0 0 0 -2.47,0.77 0.53,0.53 0 0 0 -0.26,0.79 v 0 l 2.75,5.4 -0.56,0.1 3.35,8.28 0.91,-0.29 -1.9,-7.7 A 0.65,0.65 0 0 0 18,7.41 Z m 3.75,0.14 -1,-7 A 0.47,0.47 0 0 1 20.81,0.14 0.62,0.62 0 0 1 21.2,0 h 1 q 0.81,0 1.59,0.06 l -1.17,7.72 v 0 c 0.46,0.13 0.58,0.29 0.56,0.76 l -0.5,7 h -1 l -0.58,-8 c 0.22,-0.05 0.42,-0.03 0.61,0.01 z m 4.25,1.66 1.56,-8 v 0 a 0.52,0.52 0 0 1 0.67,-0.38 v 0 a 20.24,20.24 0 0 1 2.45,0.85 v 0 l -3.92,8.18 v 0 c 0.32,0.28 0.34,0.5 0.17,0.93 v 0 l -2.14,5.2 -0.91,-0.3 1.69,-6.72 z m 2.91,3 4.76,-8.3 0.13,0.11 v 0 -0.11 0 a 0.48,0.48 0 0 1 0.76,-0.26 v 0 a 23,23 0 0 1 2,1.52 l -0.94,0.66 v 0 a 0.27,0.27 0 0 1 0,0.38 l -6.29,6.93 c 0.15,0.31 0.17,0.43 0,0.7 l -2.76,3.24 -0.77,-0.56 2.86,-4.58 c 0.04,0.07 0.12,0.2 0.2,0.32 z M 30.37,15.69 38,8.96 c 0,0.08 0.1,0.15 0.14,0.23 l 0.64,-0.75 v 0 a 0.55,0.55 0 0 1 0.91,0 22.47,22.47 0 0 1 1.42,2 v 0 l -1.87,0.74 v 0 a 0.26,0.26 0 0 1 -0.1,0.38 l -8.64,5.13 v 0 a 0.33,0.33 0 0 1 -0.15,0.4 l -2.47,1.52 -0.56,-0.78 2.91,-2.44 z m -14.63,8 0.29,0.91 -2.21,1.11 v -0.22 l -9.91,4 c 0,-0.15 -0.08,-0.3 -0.11,-0.45 l -1.6,1.1 A 0.57,0.57 0 0 1 1.39,29.9 v 0 A 21.22,21.22 0 0 1 0.65,27.48 v 0 L 3.39,27.3 a 0.45,0.45 0 0 1 0.36,-0.57 l 10.3,-2.59 v 0 A 0.33,0.33 0 0 1 14.36,23.9 Z M 8.74,11.43 8,10.71 5.27,7.81 A 23.59,23.59 0 0 0 3.7,9.87 0.48,0.48 0 0 0 3.88,10.63 l 3.83,1.81 -0.39,0.42 9.19,5.73 0.57,-0.78 -7.54,-6.39 a 0.67,0.67 0 0 0 -0.83,0.07 z m 17,16.34 0.78,-0.56 6.34,7.55 -0.52,0.29 3.66,3.67 v 0 a 0.51,0.51 0 0 1 0,0.79 v 0 a 23.52,23.52 0 0 1 -2.11,1.48 v 0 L 31.26,35.6 v 0 c -0.35,0.15 -0.59,0.1 -0.74,-0.11 z m 3.16,-5.21 v -1 l 12.35,-0.9 c 0,0.15 0,0.3 0,0.44 l 2.51,-0.55 v 0 a 0.53,0.53 0 0 1 0.62,0.48 v 0 c 0,0.33 0,0.66 0,1 0,0.53 0,1.05 -0.06,1.57 l -3.27,-0.7 v 0 a 0.49,0.49 0 0 1 -0.61,0.41 z m 6.79,10.17 0.74,0.78 2.73,2.9 a 23.59,23.59 0 0 0 1.55,-2.06 0.49,0.49 0 0 0 -0.18,-0.76 l -3.87,-1.75 q 0.21,-0.21 0.39,-0.42 l -9.18,-5.73 -0.57,0.78 7.54,6.39 a 0.65,0.65 0 0 0 0.82,-0.07 z"
     id="path8"
     inkscape:connector-curvature="0"
     style="fill:#d35b43;fill-rule:evenodd" />
</svg>
